<?xml version="1.0" standalone="no"?>
<!DOCTYPE svg PUBLIC "-//W3C//DTD SVG 20010904//EN"
 "http://www.w3.org/TR/2001/REC-SVG-20010904/DTD/svg10.dtd">
<svg version="1.0" xmlns="http://www.w3.org/2000/svg"
 width="1024.000000pt" height="1024.000000pt" viewBox="0 0 1024.000000 1024.000000"
 preserveAspectRatio="xMidYMid meet">
<metadata>
Created by potrace 1.14, written by Peter Selinger 2001-2017
</metadata>
<g transform="translate(0.000000,1024.000000) scale(0.100000,-0.100000)"
fill="#000000" stroke="none">
<path d="M2725 7344 c0 -91 -3 -168 -7 -170 -5 -3 -82 -5 -172 -5 l-164 0 0
-162 c0 -89 -1 -167 -1 -172 -1 -6 -63 -10 -168 -10 l-168 0 -2 -75 c-1 -41
-2 -118 -2 -170 l-1 -96 -167 0 -168 0 -3 -172 -2 -172 -170 2 c-164 3 -170 2
-171 -17 0 -11 -1 -89 -1 -172 l-1 -153 -172 0 -171 0 1 -166 c0 -92 -3 -168
-8 -171 -6 -3 -75 -5 -156 -5 -80 0 -153 -1 -162 -4 -14 -4 -16 -56 -16 -514
l1 -510 100 1 c56 0 133 0 171 0 l70 -1 0 -167 0 -168 171 -3 171 -2 1 -158
c0 -86 1 -163 1 -169 1 -10 42 -13 171 -13 l170 0 0 -170 0 -170 58 -1 c31 0
108 0 170 0 l112 1 0 -52 c1 -29 2 -107 3 -173 l2 -120 168 0 167 1 1 -31 c0
-16 2 -93 2 -170 l2 -140 168 0 167 0 1 -40 c0 -22 0 -100 0 -172 l-1 -133
345 0 345 0 -3 510 c-2 353 1 511 8 514 6 2 60 4 120 4 61 0 133 1 162 1 l52
1 0 133 c0 72 0 149 0 170 l1 37 170 0 170 0 0 -685 0 -685 340 0 340 0 1 33
c0 17 1 249 1 513 l0 481 163 1 c90 0 167 2 172 5 4 3 8 80 7 171 l-1 166 172
0 172 0 0 153 c1 83 2 160 2 169 1 16 18 18 169 20 l167 3 2 150 c1 83 2 159
2 170 1 19 7 20 171 18 l170 -3 2 173 3 172 168 -1 c162 0 167 0 168 20 0 12
0 89 0 171 l-1 150 166 0 c91 0 169 2 173 5 3 3 6 79 6 170 l0 165 163 1 c90
1 166 5 170 9 4 3 7 79 7 168 l0 162 172 3 171 2 1 158 c0 86 1 163 1 170 0
10 37 12 168 10 l167 -3 1 -155 c1 -85 2 -161 3 -167 1 -10 42 -13 171 -13
l170 0 -2 -165 c-1 -91 1 -168 5 -171 3 -3 79 -6 169 -7 l163 0 5 -171 5 -171
168 1 167 0 -2 -170 -3 -171 -167 0 -168 1 -2 -171 -3 -170 -163 -1 c-90 -1
-165 -4 -169 -7 -3 -3 -5 -80 -6 -171 l0 -166 -167 0 c-152 0 -168 -2 -171
-17 -2 -10 -4 -87 -4 -170 l1 -153 -171 0 -171 0 1 -166 c0 -91 -3 -168 -8
-171 -4 -2 -79 -5 -167 -5 -141 1 -160 -1 -164 -16 -2 -9 -4 -83 -4 -164 1
-82 -2 -151 -6 -155 -4 -5 -80 -8 -169 -8 l-162 0 -3 -342 -2 -342 339 -1
c316 0 339 1 343 17 2 10 3 85 3 166 -1 96 2 150 9 155 6 3 83 7 171 7 l160 0
0 167 c0 93 2 169 5 169 3 1 79 2 170 3 l165 1 2 90 c1 50 2 127 2 171 l1 82
158 0 c86 0 163 1 170 1 9 1 12 42 12 171 l0 170 170 0 170 0 0 170 0 170 172
2 172 3 0 168 0 167 50 1 c28 0 105 1 171 2 l120 2 0 510 0 510 -150 2 c-82 1
-159 2 -171 2 -20 1 -20 6 -20 169 l0 167 -172 3 -172 2 0 170 0 170 -170 0
-170 0 -2 172 -3 173 -162 0 c-89 0 -164 3 -168 7 -4 3 -7 78 -7 166 1 115 -3
162 -11 164 -7 3 -83 4 -169 4 -99 -1 -159 3 -161 9 -1 5 -2 83 -1 173 l1 162
-151 -1 c-83 0 -160 -1 -171 0 -20 1 -21 7 -21 169 l0 167 -343 3 -342 2 2
-672 c1 -370 1 -679 0 -685 -1 -10 -42 -13 -171 -13 l-170 0 1 -147 c0 -82 0
-158 0 -170 -1 -23 -2 -23 -171 -23 l-170 0 0 684 0 684 -339 0 c-306 0 -340
-2 -343 -17 -2 -9 -3 -240 -3 -513 l1 -498 -171 0 -171 0 1 -157 c0 -87 -1
-164 -3 -170 -3 -10 -46 -13 -172 -13 l-168 0 1 -165 c0 -90 -2 -168 -6 -171
-4 -4 -80 -8 -169 -8 l-163 -1 -5 -170 -5 -170 -167 0 -168 0 0 -166 c0 -125
-3 -168 -12 -171 -7 -3 -84 -4 -170 -3 l-158 1 -1 -31 c0 -16 0 -94 0 -172 l1
-141 -143 -1 c-78 0 -156 0 -172 0 l-31 -1 1 -167 0 -168 -171 -3 -171 -2 2
-158 c1 -86 -1 -163 -3 -169 -3 -10 -81 -13 -342 -13 l-338 0 1 165 c0 91 -2
167 -5 170 -2 3 -80 5 -171 6 l-167 0 2 164 c1 91 -1 167 -4 171 -4 3 -81 6
-172 5 l-166 0 -2 172 -3 172 -162 0 c-89 0 -165 3 -168 7 -4 4 -8 81 -9 170
l-1 163 170 0 170 0 2 110 c1 61 2 138 3 172 l0 61 165 0 c91 -1 168 2 171 5
3 3 5 80 5 171 l0 166 171 2 172 3 -1 168 -1 167 62 1 c33 0 109 0 168 0 74 0
107 3 110 12 2 7 4 83 3 170 0 99 3 157 10 158 5 1 82 2 170 3 l160 1 1 160
c1 88 2 165 3 170 1 7 61 10 169 10 l167 0 2 343 1 342 -342 0 -342 0 1 -166z
m3415 -1714 c0 -129 -3 -170 -12 -171 -7 0 -84 -1 -170 -1 -138 -1 -158 -3
-159 -17 0 -9 -1 -85 -1 -168 -1 -103 -5 -153 -12 -154 -48 -5 -313 -3 -321 2
-8 6 -12 205 -6 321 1 15 19 16 169 15 l167 -1 2 155 c0 85 2 162 2 172 1 15
16 17 171 17 l170 0 0 -170z m-685 -685 l0 -170 -171 0 -171 0 2 165 c1 91 3
167 4 170 0 3 76 5 169 5 l167 0 0 -170z m-347 -182 c5 -9 8 -292 3 -325 -1
-3 -70 -6 -153 -6 -84 0 -161 -1 -171 -1 -15 -1 -17 -13 -16 -118 0 -65 0
-142 0 -170 l-1 -53 -170 0 -170 0 0 -170 0 -170 -170 0 -170 0 0 170 0 170
170 0 170 0 0 170 c0 169 0 170 23 171 12 0 88 0 170 0 l147 0 1 27 c0 15 1
90 1 167 0 77 4 142 8 145 17 11 321 4 328 -7z"/>
</g>
</svg>
