<?xml version="1.0" standalone="no"?>
<!DOCTYPE svg PUBLIC "-//W3C//DTD SVG 20010904//EN"
 "http://www.w3.org/TR/2001/REC-SVG-20010904/DTD/svg10.dtd">
<svg version="1.0" xmlns="http://www.w3.org/2000/svg"
 width="1440.000000pt" height="1440.000000pt" viewBox="0 0 1440.000000 1440.000000"
 preserveAspectRatio="xMidYMid meet">
<metadata>
Created by potrace 1.14, written by Peter Selinger 2001-2017
</metadata>
<g transform="translate(0.000000,1440.000000) scale(0.100000,-0.100000)"
fill="#000000" stroke="none">
<path d="M3063 10620 c-17 -5 -18 -22 -18 -246 l1 -240 -243 0 c-209 1 -243
-1 -244 -14 0 -8 -1 -116 -1 -240 0 -124 -4 -227 -8 -230 -5 -3 -114 -5 -244
-4 l-236 0 0 -243 c0 -187 -3 -243 -12 -244 -7 0 -118 -1 -245 -2 l-233 0 0
-244 0 -243 -244 0 -244 0 0 -177 c0 -98 -1 -209 -1 -246 l-1 -68 -172 1 c-95
0 -204 1 -243 0 l-70 0 0 -243 0 -242 -243 0 c-133 0 -242 -2 -243 -5 -5 -23
-3 -1444 2 -1452 4 -7 88 -10 230 -9 123 0 231 -2 239 -4 13 -4 15 -40 15
-245 l0 -240 242 0 243 0 1 -27 c1 -16 1 -126 0 -245 l0 -218 244 0 245 0 2
-242 3 -243 240 0 240 -1 3 -245 2 -244 233 0 c127 1 237 0 243 -2 8 -3 11
-71 10 -235 0 -126 2 -235 6 -241 4 -7 84 -11 245 -11 l238 -1 0 -237 c1 -130
3 -240 7 -243 3 -3 158 -6 344 -6 187 1 404 1 484 1 l145 0 0 729 c-1 649 1
730 15 733 8 2 117 3 243 3 l227 -1 1 35 c0 20 1 129 1 244 l0 207 244 0 c226
0 244 1 245 18 0 9 0 119 0 245 l0 227 245 0 244 0 0 245 0 245 243 -1 242 0
1 234 c1 129 4 238 7 243 3 5 108 9 237 9 146 0 234 3 238 10 4 5 7 111 8 235
1 124 2 230 3 235 1 7 84 10 241 10 208 0 240 1 241 15 1 8 2 118 2 244 l2
229 243 -1 c183 -1 242 2 243 11 0 7 1 117 1 245 1 163 4 232 12 232 6 1 116
1 244 0 l232 0 0 977 0 978 -477 -1 c-263 -1 -483 -2 -489 -3 -7 -1 -10 -218
-9 -718 0 -395 -1 -724 -3 -730 -3 -10 -61 -13 -246 -13 l-241 0 0 -245 0
-244 -239 -1 c-131 0 -241 -2 -244 -5 -3 -3 -5 -113 -5 -244 l0 -239 -231 0
c-127 -1 -237 -1 -243 -1 -10 -1 -13 -60 -15 -243 l-3 -243 -240 0 -240 0 0
-243 c0 -208 -2 -242 -15 -243 -8 -1 -118 -2 -245 -3 l-230 -1 -1 -238 c-1
-131 -4 -240 -7 -243 -3 -3 -111 -5 -241 -5 -211 -1 -236 -2 -240 -17 -2 -10
-3 -119 -2 -245 l1 -227 -245 0 -245 0 0 -242 0 -243 -487 -3 -488 -2 -1 22
c0 13 -1 123 -1 246 l-1 222 -243 0 -244 0 0 244 0 244 -227 0 c-126 1 -236 1
-245 1 -17 1 -18 19 -18 244 l0 243 -242 0 -243 0 -2 224 c-2 124 -1 234 2
245 4 20 12 20 242 20 l238 0 3 243 2 242 173 1 c94 0 205 0 245 -1 l72 -1 0
245 0 246 228 1 c125 1 234 1 243 0 15 -2 16 23 15 244 l-1 245 246 0 245 0 0
240 c-1 233 0 241 19 245 11 2 112 4 225 3 113 0 214 1 225 1 20 1 20 7 19
234 0 127 1 237 3 243 3 7 77 11 239 10 136 -1 238 3 242 8 7 13 7 955 -1 962
-7 8 -928 11 -954 4z"/>
<path d="M10389 10622 c-12 -2 -14 -135 -15 -975 l0 -972 -245 -5 -244 -5 0
-243 0 -243 -110 1 c-60 1 -171 1 -245 1 l-135 -1 0 -242 0 -243 -240 0 -240
0 -5 -245 -5 -245 -240 0 -240 0 -5 -245 -5 -245 -240 0 -240 0 -5 -244 -5
-243 -237 1 c-176 0 -237 -3 -241 -12 -2 -7 -3 -117 -3 -244 l1 -233 -245 0
-245 0 0 -243 0 -242 -245 -3 -245 -2 1 -971 c1 -533 4 -972 6 -975 7 -6 960
-6 967 1 3 4 6 333 6 733 l0 726 243 0 242 0 0 243 0 243 245 0 245 0 0 245 0
245 245 0 245 0 0 244 0 245 228 -1 c125 0 234 1 243 1 13 1 15 30 15 244 l-1
242 230 1 c127 1 237 2 245 3 13 1 15 33 15 237 0 149 3 238 10 243 5 4 114 7
242 7 225 -1 232 -1 235 19 2 11 3 120 3 243 -1 193 1 222 15 223 8 0 117 0
243 -1 l227 -1 0 246 0 245 103 0 c56 1 166 1 245 0 l142 -1 0 246 0 245 245
0 245 0 0 -245 0 -244 173 0 c94 0 204 0 244 0 l71 -1 0 -162 c0 -90 1 -200 1
-245 l1 -81 213 0 c116 -1 226 -1 242 -1 l31 -1 -1 -240 c0 -151 4 -241 10
-243 6 -2 115 -3 243 -3 127 1 233 -1 233 -4 1 -3 2 -112 3 -242 0 -151 -3
-239 -9 -241 -5 -2 -116 -3 -245 -2 l-235 0 1 -242 0 -243 -25 -1 c-15 0 -124
0 -243 0 l-218 1 -1 -22 c0 -13 -1 -123 -1 -245 l0 -223 -244 0 -244 0 0 -245
0 -245 -245 0 -245 0 0 -243 0 -243 -244 0 -244 1 0 -220 c0 -121 -1 -231 -1
-245 l-1 -25 -236 0 c-129 0 -238 -2 -242 -5 -4 -3 -8 -221 -7 -485 l0 -480
430 -5 c237 -3 456 -3 487 -2 l58 4 2 241 3 242 230 1 c127 1 236 2 242 3 10
1 13 60 15 244 l3 242 230 1 c127 1 235 2 241 3 7 1 11 74 11 237 1 129 4 238
7 242 4 3 114 7 244 7 l237 0 0 243 0 242 241 0 c185 0 243 3 246 13 2 6 4
117 3 245 l-1 232 243 0 c225 0 243 1 244 18 0 9 1 119 1 243 l1 227 241 1
c132 1 242 3 244 5 2 3 4 330 4 728 l0 723 -245 3 -246 2 1 240 c1 132 -1 243
-4 246 -3 2 -113 6 -244 7 l-239 2 -1 230 c-1 127 -2 236 -3 243 -1 9 -57 12
-243 12 l-243 0 0 243 0 242 -237 1 c-131 0 -241 4 -245 7 -3 4 -6 113 -5 242
0 129 -3 236 -6 237 -4 0 -113 2 -242 3 l-235 1 -5 244 -5 244 -242 0 -243 0
-2 244 -3 245 -471 1 c-259 0 -477 0 -485 -2z"/>
</g>
</svg>
